<?xml version="1.0" encoding="UTF-8" standalone="no"?>
<!DOCTYPE svg PUBLIC "-//W3C//DTD SVG 1.1//EN"
 "http://www.w3.org/Graphics/SVG/1.1/DTD/svg11.dtd">
<!-- Generated by graphviz version 2.38.0 (20140413.2041)
 -->
<!-- Title: %3 Pages: 1 -->
<svg width="422pt" height="152pt"
 viewBox="0.00 0.00 422.00 152.00" xmlns="http://www.w3.org/2000/svg" xmlns:xlink="http://www.w3.org/1999/xlink">
<g id="graph0" class="graph" transform="scale(1 1) rotate(0) translate(4 148)">
<title>%3</title>
<polygon fill="white" stroke="none" points="-4,4 -4,-148 418,-148 418,4 -4,4"/>
<!-- v0 -->
<g id="node1" class="node"><title>v0</title>
<ellipse fill="blue" stroke="blue" cx="27" cy="-99" rx="27" ry="18"/>
<text text-anchor="middle" x="27" y="-94.8" font-family="Times,serif" font-size="14.00" fill="white">0</text>
</g>
<!-- v1 -->
<g id="node2" class="node"><title>v1</title>
<ellipse fill="lightgrey" stroke="black" cx="117" cy="-126" rx="27" ry="18"/>
</g>
<!-- v0&#45;&#45;v1 -->
<g id="edge1" class="edge"><title>v0&#45;&#45;v1</title>
<path fill="none" stroke="black" d="M52.0464,-106.378C64.5651,-110.219 79.8178,-114.899 92.2874,-118.725"/>
</g>
<!-- v2 -->
<g id="node3" class="node"><title>v2</title>
<ellipse fill="green" stroke="green" cx="117" cy="-72" rx="27" ry="18"/>
<text text-anchor="middle" x="117" y="-67.8" font-family="Times,serif" font-size="14.00" fill="white">1</text>
</g>
<!-- v0&#45;&#45;v2 -->
<g id="edge2" class="edge"><title>v0&#45;&#45;v2</title>
<path fill="none" stroke="black" d="M52.0464,-91.6221C64.5651,-87.7812 79.8178,-83.1014 92.2874,-79.2755"/>
</g>
<!-- v3 -->
<g id="node4" class="node"><title>v3</title>
<ellipse fill="red" stroke="red" cx="207" cy="-72" rx="27" ry="18"/>
<text text-anchor="middle" x="207" y="-67.8" font-family="Times,serif" font-size="14.00" fill="white">2</text>
</g>
<!-- v2&#45;&#45;v3 -->
<g id="edge3" class="edge"><title>v2&#45;&#45;v3</title>
<path fill="none" stroke="black" d="M144.403,-72C155.642,-72 168.715,-72 179.919,-72"/>
</g>
<!-- v4 -->
<g id="node5" class="node"><title>v4</title>
<ellipse fill="lightgrey" stroke="black" cx="297" cy="-126" rx="27" ry="18"/>
</g>
<!-- v3&#45;&#45;v4 -->
<g id="edge4" class="edge"><title>v3&#45;&#45;v4</title>
<path fill="none" stroke="black" d="M227.53,-83.9844C242.113,-92.9331 261.955,-105.108 276.525,-114.049"/>
</g>
<!-- v5 -->
<g id="node6" class="node"><title>v5</title>
<ellipse fill="lightgrey" stroke="black" cx="297" cy="-72" rx="27" ry="18"/>
</g>
<!-- v3&#45;&#45;v5 -->
<g id="edge5" class="edge"><title>v3&#45;&#45;v5</title>
<path fill="none" stroke="black" d="M234.403,-72C245.642,-72 258.715,-72 269.919,-72"/>
</g>
<!-- v6 -->
<g id="node7" class="node"><title>v6</title>
<ellipse fill="orange" stroke="orange" cx="297" cy="-18" rx="27" ry="18"/>
<text text-anchor="middle" x="297" y="-13.8" font-family="Times,serif" font-size="14.00" fill="white">3</text>
</g>
<!-- v3&#45;&#45;v6 -->
<g id="edge6" class="edge"><title>v3&#45;&#45;v6</title>
<path fill="none" stroke="black" d="M227.53,-60.0156C242.113,-51.0669 261.955,-38.8915 276.525,-29.9508"/>
</g>
<!-- v7 -->
<g id="node8" class="node"><title>v7</title>
<ellipse fill="purple" stroke="purple" cx="387" cy="-18" rx="27" ry="18"/>
<text text-anchor="middle" x="387" y="-13.8" font-family="Times,serif" font-size="14.00" fill="white">4</text>
</g>
<!-- v6&#45;&#45;v7 -->
<g id="edge7" class="edge"><title>v6&#45;&#45;v7</title>
<path fill="none" stroke="black" d="M324.403,-18C335.642,-18 348.715,-18 359.919,-18"/>
</g>
</g>
</svg>
