<?xml version="1.0" encoding="UTF-8" standalone="no"?>
<!DOCTYPE svg PUBLIC "-//W3C//DTD SVG 1.1//EN"
 "http://www.w3.org/Graphics/SVG/1.1/DTD/svg11.dtd">
<!-- Generated by graphviz version 2.38.0 (20140413.2041)
 -->
<!-- Title: %3 Pages: 1 -->
<svg width="422pt" height="152pt"
 viewBox="0.00 0.00 422.00 152.00" xmlns="http://www.w3.org/2000/svg" xmlns:xlink="http://www.w3.org/1999/xlink">
<g id="graph0" class="graph" transform="scale(1 1) rotate(0) translate(4 148)">
<title>%3</title>
<polygon fill="white" stroke="none" points="-4,4 -4,-148 418,-148 418,4 -4,4"/>
<!-- v0 -->
<g id="node1" class="node"><title>v0</title>
<ellipse fill="blue" stroke="blue" cx="27" cy="-126" rx="27" ry="18"/>
<text text-anchor="middle" x="27" y="-121.8" font-family="Times,serif" font-size="14.00" fill="white">v0</text>
</g>
<!-- v1 -->
<g id="node2" class="node"><title>v1</title>
<ellipse fill="lightgrey" stroke="black" cx="117" cy="-126" rx="27" ry="18"/>
<text text-anchor="middle" x="117" y="-121.8" font-family="Times,serif" font-size="14.00" fill="white">v1</text>
</g>
<!-- v0&#45;&gt;v1 -->
<g id="edge1" class="edge"><title>v0&#45;&gt;v1</title>
<path fill="none" stroke="black" d="M52.5129,-119.877C61.4017,-119.266 71.6201,-119.102 81.2245,-119.384"/>
<polygon fill="black" stroke="black" points="81.1579,-122.884 91.3133,-119.865 81.4915,-115.892 81.1579,-122.884"/>
</g>
<!-- v2 -->
<g id="node3" class="node"><title>v2</title>
<ellipse fill="green" stroke="green" cx="117" cy="-72" rx="27" ry="18"/>
<text text-anchor="middle" x="117" y="-67.8" font-family="Times,serif" font-size="14.00" fill="white">v2</text>
</g>
<!-- v0&#45;&gt;v2 -->
<g id="edge3" class="edge"><title>v0&#45;&gt;v2</title>
<path fill="none" stroke="black" d="M47.5301,-114.016C59.3788,-106.745 74.6989,-97.3438 87.8424,-89.2785"/>
<polygon fill="black" stroke="black" points="89.8319,-92.1642 96.5245,-83.9508 86.1707,-86.1979 89.8319,-92.1642"/>
</g>
<!-- v1&#45;&gt;v0 -->
<g id="edge2" class="edge"><title>v1&#45;&gt;v0</title>
<path fill="none" stroke="black" d="M91.3133,-132.135C82.4074,-132.74 72.1844,-132.899 62.588,-132.611"/>
<polygon fill="black" stroke="black" points="62.6704,-129.111 52.5129,-132.123 62.3321,-136.103 62.6704,-129.111"/>
</g>
<!-- v3 -->
<g id="node4" class="node"><title>v3</title>
<ellipse fill="red" stroke="red" cx="207" cy="-72" rx="27" ry="18"/>
<text text-anchor="middle" x="207" y="-67.8" font-family="Times,serif" font-size="14.00" fill="white">v3</text>
</g>
<!-- v2&#45;&gt;v3 -->
<g id="edge4" class="edge"><title>v2&#45;&gt;v3</title>
<path fill="none" stroke="black" d="M144.403,-72C152.393,-72 161.311,-72 169.824,-72"/>
<polygon fill="black" stroke="black" points="169.919,-75.5001 179.919,-72 169.919,-68.5001 169.919,-75.5001"/>
</g>
<!-- v4 -->
<g id="node5" class="node"><title>v4</title>
<ellipse fill="lightgrey" stroke="black" cx="297" cy="-126" rx="27" ry="18"/>
<text text-anchor="middle" x="297" y="-121.8" font-family="Times,serif" font-size="14.00" fill="white">v4</text>
</g>
<!-- v3&#45;&gt;v4 -->
<g id="edge5" class="edge"><title>v3&#45;&gt;v4</title>
<path fill="none" stroke="black" d="M231.121,-80.1646C243.865,-87.0261 259.65,-96.7023 272.46,-105.5"/>
<polygon fill="black" stroke="black" points="270.598,-108.471 280.778,-111.406 274.65,-102.763 270.598,-108.471"/>
</g>
<!-- v5 -->
<g id="node6" class="node"><title>v5</title>
<ellipse fill="lightgrey" stroke="black" cx="297" cy="-72" rx="27" ry="18"/>
<text text-anchor="middle" x="297" y="-67.8" font-family="Times,serif" font-size="14.00" fill="white">v5</text>
</g>
<!-- v3&#45;&gt;v5 -->
<g id="edge7" class="edge"><title>v3&#45;&gt;v5</title>
<path fill="none" stroke="black" d="M232.513,-65.8766C241.402,-65.266 251.62,-65.1016 261.224,-65.3836"/>
<polygon fill="black" stroke="black" points="261.158,-68.8843 271.313,-65.8648 261.491,-61.8923 261.158,-68.8843"/>
</g>
<!-- v6 -->
<g id="node7" class="node"><title>v6</title>
<ellipse fill="orange" stroke="orange" cx="297" cy="-18" rx="27" ry="18"/>
<text text-anchor="middle" x="297" y="-13.8" font-family="Times,serif" font-size="14.00" fill="white">v6</text>
</g>
<!-- v3&#45;&gt;v6 -->
<g id="edge9" class="edge"><title>v3&#45;&gt;v6</title>
<path fill="none" stroke="black" d="M227.53,-60.0156C239.379,-52.7448 254.699,-43.3438 267.842,-35.2785"/>
<polygon fill="black" stroke="black" points="269.832,-38.1642 276.525,-29.9508 266.171,-32.1979 269.832,-38.1642"/>
</g>
<!-- v4&#45;&gt;v3 -->
<g id="edge6" class="edge"><title>v4&#45;&gt;v3</title>
<path fill="none" stroke="black" d="M272.915,-117.855C260.2,-111.011 244.449,-101.36 231.647,-92.5728"/>
<polygon fill="black" stroke="black" points="233.51,-89.6032 223.328,-86.6729 229.46,-95.3129 233.51,-89.6032"/>
</g>
<!-- v5&#45;&gt;v3 -->
<g id="edge8" class="edge"><title>v5&#45;&gt;v3</title>
<path fill="none" stroke="black" d="M271.313,-78.1352C262.407,-78.7401 252.184,-78.8986 242.588,-78.6108"/>
<polygon fill="black" stroke="black" points="242.67,-75.1108 232.513,-78.1234 242.332,-82.1026 242.67,-75.1108"/>
</g>
<!-- v7 -->
<g id="node8" class="node"><title>v7</title>
<ellipse fill="purple" stroke="purple" cx="387" cy="-18" rx="27" ry="18"/>
<text text-anchor="middle" x="387" y="-13.8" font-family="Times,serif" font-size="14.00" fill="white">v7</text>
</g>
<!-- v6&#45;&gt;v7 -->
<g id="edge10" class="edge"><title>v6&#45;&gt;v7</title>
<path fill="none" stroke="black" d="M324.403,-18C332.393,-18 341.311,-18 349.824,-18"/>
<polygon fill="black" stroke="black" points="349.919,-21.5001 359.919,-18 349.919,-14.5001 349.919,-21.5001"/>
</g>
</g>
</svg>
