<?xml version="1.0" encoding="UTF-8" standalone="no"?>
<!DOCTYPE svg PUBLIC "-//W3C//DTD SVG 1.1//EN"
 "http://www.w3.org/Graphics/SVG/1.1/DTD/svg11.dtd">
<!-- Generated by graphviz version 2.38.0 (20140413.2041)
 -->
<!-- Title: %3 Pages: 1 -->
<svg width="4472pt" height="98pt"
 viewBox="0.00 0.00 4472.00 98.00" xmlns="http://www.w3.org/2000/svg" xmlns:xlink="http://www.w3.org/1999/xlink">
<g id="graph0" class="graph" transform="scale(1 1) rotate(0) translate(4 94)">
<title>%3</title>
<polygon fill="white" stroke="none" points="-4,4 -4,-94 4468,-94 4468,4 -4,4"/>
<!-- a02f5ecab27c82fc5513d3a86cf5a913c01f3dfd -->
<g id="node1" class="node"><title>a02f5ecab27c82fc5513d3a86cf5a913c01f3dfd</title>
<ellipse fill="none" stroke="black" cx="2457" cy="-72" rx="27" ry="18"/>
</g>
<!-- 7e29a108393dd18e56238385142fdfa230cdcc6b -->
<g id="node18" class="node"><title>7e29a108393dd18e56238385142fdfa230cdcc6b</title>
<ellipse fill="none" stroke="black" cx="2547" cy="-72" rx="27" ry="18"/>
</g>
<!-- a02f5ecab27c82fc5513d3a86cf5a913c01f3dfd&#45;&gt;7e29a108393dd18e56238385142fdfa230cdcc6b -->
<g id="edge28" class="edge"><title>a02f5ecab27c82fc5513d3a86cf5a913c01f3dfd&#45;&gt;7e29a108393dd18e56238385142fdfa230cdcc6b</title>
<path fill="none" stroke="black" d="M2484.4,-72C2492.39,-72 2501.31,-72 2509.82,-72"/>
<polygon fill="black" stroke="black" points="2509.92,-75.5001 2519.92,-72 2509.92,-68.5001 2509.92,-75.5001"/>
</g>
<!-- 090c0fc65185ba09567cc9d1a807225911283227 -->
<g id="node2" class="node"><title>090c0fc65185ba09567cc9d1a807225911283227</title>
<ellipse fill="none" stroke="black" cx="2907" cy="-72" rx="27" ry="18"/>
</g>
<!-- 02d6865cb9ed987d2ca81918734773796f2b4979 -->
<g id="node15" class="node"><title>02d6865cb9ed987d2ca81918734773796f2b4979</title>
<ellipse fill="none" stroke="black" cx="2997" cy="-72" rx="27" ry="18"/>
</g>
<!-- 090c0fc65185ba09567cc9d1a807225911283227&#45;&gt;02d6865cb9ed987d2ca81918734773796f2b4979 -->
<g id="edge33" class="edge"><title>090c0fc65185ba09567cc9d1a807225911283227&#45;&gt;02d6865cb9ed987d2ca81918734773796f2b4979</title>
<path fill="none" stroke="black" d="M2934.4,-72C2942.39,-72 2951.31,-72 2959.82,-72"/>
<polygon fill="black" stroke="black" points="2959.92,-75.5001 2969.92,-72 2959.92,-68.5001 2959.92,-75.5001"/>
</g>
<!-- 1f05b0366f34e43e6a5e7c605e3b7e4ebd683d63 -->
<g id="node3" class="node"><title>1f05b0366f34e43e6a5e7c605e3b7e4ebd683d63</title>
<ellipse fill="none" stroke="black" cx="1737" cy="-72" rx="27" ry="18"/>
</g>
<!-- edc2363711639144fed9701cb08c7cb162cbe2c1 -->
<g id="node22" class="node"><title>edc2363711639144fed9701cb08c7cb162cbe2c1</title>
<ellipse fill="none" stroke="black" cx="1827" cy="-72" rx="27" ry="18"/>
</g>
<!-- 1f05b0366f34e43e6a5e7c605e3b7e4ebd683d63&#45;&gt;edc2363711639144fed9701cb08c7cb162cbe2c1 -->
<g id="edge20" class="edge"><title>1f05b0366f34e43e6a5e7c605e3b7e4ebd683d63&#45;&gt;edc2363711639144fed9701cb08c7cb162cbe2c1</title>
<path fill="none" stroke="black" d="M1764.4,-72C1772.39,-72 1781.31,-72 1789.82,-72"/>
<polygon fill="black" stroke="black" points="1789.92,-75.5001 1799.92,-72 1789.92,-68.5001 1789.92,-75.5001"/>
</g>
<!-- baf1d2a417f530f7410d4f77c7b1c887a0105e8c -->
<g id="node4" class="node"><title>baf1d2a417f530f7410d4f77c7b1c887a0105e8c</title>
<ellipse fill="none" stroke="black" cx="3897" cy="-72" rx="27" ry="18"/>
</g>
<!-- fcbbf460ce622a9c1059e915d3f64d1a486a5ca7 -->
<g id="node45" class="node"><title>fcbbf460ce622a9c1059e915d3f64d1a486a5ca7</title>
<ellipse fill="none" stroke="black" cx="3807" cy="-72" rx="27" ry="18"/>
</g>
<!-- baf1d2a417f530f7410d4f77c7b1c887a0105e8c&#45;&gt;fcbbf460ce622a9c1059e915d3f64d1a486a5ca7 -->
<g id="edge44" class="edge"><title>baf1d2a417f530f7410d4f77c7b1c887a0105e8c&#45;&gt;fcbbf460ce622a9c1059e915d3f64d1a486a5ca7</title>
<path fill="none" stroke="black" d="M3871.31,-78.1352C3862.41,-78.7401 3852.18,-78.8986 3842.59,-78.6108"/>
<polygon fill="black" stroke="black" points="3842.67,-75.1108 3832.51,-78.1234 3842.33,-82.1026 3842.67,-75.1108"/>
</g>
<!-- 7fa58cd803589b009aad227850329af2726863dd -->
<g id="node5" class="node"><title>7fa58cd803589b009aad227850329af2726863dd</title>
<ellipse fill="none" stroke="black" cx="4257" cy="-18" rx="27" ry="18"/>
</g>
<!-- 5f8b10ed3b1aa5c9c6090fa6e3b001caa2ee1be5 -->
<g id="node13" class="node"><title>5f8b10ed3b1aa5c9c6090fa6e3b001caa2ee1be5</title>
<ellipse fill="none" stroke="black" cx="4347" cy="-18" rx="27" ry="18"/>
</g>
<!-- 7fa58cd803589b009aad227850329af2726863dd&#45;&gt;5f8b10ed3b1aa5c9c6090fa6e3b001caa2ee1be5 -->
<g id="edge50" class="edge"><title>7fa58cd803589b009aad227850329af2726863dd&#45;&gt;5f8b10ed3b1aa5c9c6090fa6e3b001caa2ee1be5</title>
<path fill="none" stroke="black" d="M4284.4,-18C4292.39,-18 4301.31,-18 4309.82,-18"/>
<polygon fill="black" stroke="black" points="4309.92,-21.5001 4319.92,-18 4309.92,-14.5001 4309.92,-21.5001"/>
</g>
<!-- 1c7325e50a00928470665fa7c4d38e04b4173cdc -->
<g id="node6" class="node"><title>1c7325e50a00928470665fa7c4d38e04b4173cdc</title>
<ellipse fill="none" stroke="black" cx="2637" cy="-72" rx="27" ry="18"/>
</g>
<!-- c02913ac9eb8e5aaa33f1eef1bc5df8e2a6cfab2 -->
<g id="node47" class="node"><title>c02913ac9eb8e5aaa33f1eef1bc5df8e2a6cfab2</title>
<ellipse fill="none" stroke="black" cx="2727" cy="-72" rx="27" ry="18"/>
</g>
<!-- 1c7325e50a00928470665fa7c4d38e04b4173cdc&#45;&gt;c02913ac9eb8e5aaa33f1eef1bc5df8e2a6cfab2 -->
<g id="edge30" class="edge"><title>1c7325e50a00928470665fa7c4d38e04b4173cdc&#45;&gt;c02913ac9eb8e5aaa33f1eef1bc5df8e2a6cfab2</title>
<path fill="none" stroke="black" d="M2664.4,-72C2672.39,-72 2681.31,-72 2689.82,-72"/>
<polygon fill="black" stroke="black" points="2689.92,-75.5001 2699.92,-72 2689.92,-68.5001 2689.92,-75.5001"/>
</g>
<!-- ce92588dc1128bc2b0db632c8b51cf67d2b5e434 -->
<g id="node7" class="node"><title>ce92588dc1128bc2b0db632c8b51cf67d2b5e434</title>
<ellipse fill="none" stroke="black" cx="297" cy="-72" rx="27" ry="18"/>
</g>
<!-- 2071069317dd9534d38c65d5a26546b91d063b6c -->
<g id="node16" class="node"><title>2071069317dd9534d38c65d5a26546b91d063b6c</title>
<ellipse fill="none" stroke="black" cx="387" cy="-72" rx="27" ry="18"/>
</g>
<!-- ce92588dc1128bc2b0db632c8b51cf67d2b5e434&#45;&gt;2071069317dd9534d38c65d5a26546b91d063b6c -->
<g id="edge4" class="edge"><title>ce92588dc1128bc2b0db632c8b51cf67d2b5e434&#45;&gt;2071069317dd9534d38c65d5a26546b91d063b6c</title>
<path fill="none" stroke="black" d="M324.403,-72C332.393,-72 341.311,-72 349.824,-72"/>
<polygon fill="black" stroke="black" points="349.919,-75.5001 359.919,-72 349.919,-68.5001 349.919,-75.5001"/>
</g>
<!-- 779d1f08f021cbe52e21a21c0ce836a7f4a6ec25 -->
<g id="node8" class="node"><title>779d1f08f021cbe52e21a21c0ce836a7f4a6ec25</title>
<ellipse fill="none" stroke="black" cx="3537" cy="-72" rx="27" ry="18"/>
</g>
<!-- d470c306b87ed456d03bafdd0a0d08580ca29fd3 -->
<g id="node37" class="node"><title>d470c306b87ed456d03bafdd0a0d08580ca29fd3</title>
<ellipse fill="none" stroke="black" cx="3627" cy="-72" rx="27" ry="18"/>
</g>
<!-- 779d1f08f021cbe52e21a21c0ce836a7f4a6ec25&#45;&gt;d470c306b87ed456d03bafdd0a0d08580ca29fd3 -->
<g id="edge40" class="edge"><title>779d1f08f021cbe52e21a21c0ce836a7f4a6ec25&#45;&gt;d470c306b87ed456d03bafdd0a0d08580ca29fd3</title>
<path fill="none" stroke="black" d="M3564.4,-72C3572.39,-72 3581.31,-72 3589.82,-72"/>
<polygon fill="black" stroke="black" points="3589.92,-75.5001 3599.92,-72 3589.92,-68.5001 3589.92,-75.5001"/>
</g>
<!-- fffbf3443456218b4263b9143d109a343cf93d43 -->
<g id="node9" class="node"><title>fffbf3443456218b4263b9143d109a343cf93d43</title>
<ellipse fill="none" stroke="black" cx="837" cy="-72" rx="27" ry="18"/>
</g>
<!-- 8b717788354d3dcc8f5a5942d0247ee6ade112f4 -->
<g id="node21" class="node"><title>8b717788354d3dcc8f5a5942d0247ee6ade112f4</title>
<ellipse fill="none" stroke="black" cx="927" cy="-72" rx="27" ry="18"/>
</g>
<!-- fffbf3443456218b4263b9143d109a343cf93d43&#45;&gt;8b717788354d3dcc8f5a5942d0247ee6ade112f4 -->
<g id="edge10" class="edge"><title>fffbf3443456218b4263b9143d109a343cf93d43&#45;&gt;8b717788354d3dcc8f5a5942d0247ee6ade112f4</title>
<path fill="none" stroke="black" d="M864.403,-72C872.393,-72 881.311,-72 889.824,-72"/>
<polygon fill="black" stroke="black" points="889.919,-75.5001 899.919,-72 889.919,-68.5001 889.919,-75.5001"/>
</g>
<!-- d07d95b6f0b4bcaa53466c5c2a0ac8b68c1dcd56 -->
<g id="node10" class="node"><title>d07d95b6f0b4bcaa53466c5c2a0ac8b68c1dcd56</title>
<ellipse fill="none" stroke="black" cx="27" cy="-72" rx="27" ry="18"/>
</g>
<!-- c08e82d38b4b4ff7f9be26635783f5d9ff6191fc -->
<g id="node40" class="node"><title>c08e82d38b4b4ff7f9be26635783f5d9ff6191fc</title>
<ellipse fill="none" stroke="black" cx="117" cy="-72" rx="27" ry="18"/>
</g>
<!-- d07d95b6f0b4bcaa53466c5c2a0ac8b68c1dcd56&#45;&gt;c08e82d38b4b4ff7f9be26635783f5d9ff6191fc -->
<g id="edge1" class="edge"><title>d07d95b6f0b4bcaa53466c5c2a0ac8b68c1dcd56&#45;&gt;c08e82d38b4b4ff7f9be26635783f5d9ff6191fc</title>
<path fill="none" stroke="black" d="M54.4029,-72C62.3932,-72 71.3106,-72 79.8241,-72"/>
<polygon fill="black" stroke="black" points="79.919,-75.5001 89.919,-72 79.919,-68.5001 79.919,-75.5001"/>
</g>
<!-- 4d56cd73c870aeae7d826ccf38e717fb226664a5 -->
<g id="node11" class="node"><title>4d56cd73c870aeae7d826ccf38e717fb226664a5</title>
<ellipse fill="none" stroke="black" cx="1557" cy="-72" rx="27" ry="18"/>
</g>
<!-- ee16e9518a16b14fd9a41e0b6a7712640bebb08b -->
<g id="node23" class="node"><title>ee16e9518a16b14fd9a41e0b6a7712640bebb08b</title>
<ellipse fill="none" stroke="black" cx="1647" cy="-72" rx="27" ry="18"/>
</g>
<!-- 4d56cd73c870aeae7d826ccf38e717fb226664a5&#45;&gt;ee16e9518a16b14fd9a41e0b6a7712640bebb08b -->
<g id="edge18" class="edge"><title>4d56cd73c870aeae7d826ccf38e717fb226664a5&#45;&gt;ee16e9518a16b14fd9a41e0b6a7712640bebb08b</title>
<path fill="none" stroke="black" d="M1584.4,-72C1592.39,-72 1601.31,-72 1609.82,-72"/>
<polygon fill="black" stroke="black" points="1609.92,-75.5001 1619.92,-72 1609.92,-68.5001 1609.92,-75.5001"/>
</g>
<!-- e61e8b1314ca1cf48afc8f7869f2a6c07f16f9b3 -->
<g id="node12" class="node"><title>e61e8b1314ca1cf48afc8f7869f2a6c07f16f9b3</title>
<ellipse fill="none" stroke="black" cx="3267" cy="-72" rx="27" ry="18"/>
</g>
<!-- ab1c02d3ce520f474c6a91c240fea36bbac0fdbc -->
<g id="node17" class="node"><title>ab1c02d3ce520f474c6a91c240fea36bbac0fdbc</title>
<ellipse fill="none" stroke="black" cx="3357" cy="-72" rx="27" ry="18"/>
</g>
<!-- e61e8b1314ca1cf48afc8f7869f2a6c07f16f9b3&#45;&gt;ab1c02d3ce520f474c6a91c240fea36bbac0fdbc -->
<g id="edge37" class="edge"><title>e61e8b1314ca1cf48afc8f7869f2a6c07f16f9b3&#45;&gt;ab1c02d3ce520f474c6a91c240fea36bbac0fdbc</title>
<path fill="none" stroke="black" d="M3294.4,-72C3302.39,-72 3311.31,-72 3319.82,-72"/>
<polygon fill="black" stroke="black" points="3319.92,-75.5001 3329.92,-72 3319.92,-68.5001 3319.92,-75.5001"/>
</g>
<!-- 69f1cd9e61b74b1c4fd786ca5279f7f003b8f6fc -->
<g id="node25" class="node"><title>69f1cd9e61b74b1c4fd786ca5279f7f003b8f6fc</title>
<ellipse fill="none" stroke="black" cx="4437" cy="-18" rx="27" ry="18"/>
</g>
<!-- 5f8b10ed3b1aa5c9c6090fa6e3b001caa2ee1be5&#45;&gt;69f1cd9e61b74b1c4fd786ca5279f7f003b8f6fc -->
<g id="edge51" class="edge"><title>5f8b10ed3b1aa5c9c6090fa6e3b001caa2ee1be5&#45;&gt;69f1cd9e61b74b1c4fd786ca5279f7f003b8f6fc</title>
<path fill="none" stroke="black" d="M4374.4,-18C4382.39,-18 4391.31,-18 4399.82,-18"/>
<polygon fill="black" stroke="black" points="4399.92,-21.5001 4409.92,-18 4399.92,-14.5001 4399.92,-21.5001"/>
</g>
<!-- b007aaaa1de7694ebd038bfae14d514fbd16ae51 -->
<g id="node14" class="node"><title>b007aaaa1de7694ebd038bfae14d514fbd16ae51</title>
<ellipse fill="none" stroke="black" cx="477" cy="-72" rx="27" ry="18"/>
</g>
<!-- 78a449d08964b279729f300b56623ac0f70771a6 -->
<g id="node46" class="node"><title>78a449d08964b279729f300b56623ac0f70771a6</title>
<ellipse fill="none" stroke="black" cx="567" cy="-72" rx="27" ry="18"/>
</g>
<!-- b007aaaa1de7694ebd038bfae14d514fbd16ae51&#45;&gt;78a449d08964b279729f300b56623ac0f70771a6 -->
<g id="edge6" class="edge"><title>b007aaaa1de7694ebd038bfae14d514fbd16ae51&#45;&gt;78a449d08964b279729f300b56623ac0f70771a6</title>
<path fill="none" stroke="black" d="M504.403,-72C512.393,-72 521.311,-72 529.824,-72"/>
<polygon fill="black" stroke="black" points="529.919,-75.5001 539.919,-72 529.919,-68.5001 529.919,-75.5001"/>
</g>
<!-- 28a8ee5b8d4bcc7e2a031617611ad53db017f3ce -->
<g id="node41" class="node"><title>28a8ee5b8d4bcc7e2a031617611ad53db017f3ce</title>
<ellipse fill="none" stroke="black" cx="3087" cy="-72" rx="27" ry="18"/>
</g>
<!-- 02d6865cb9ed987d2ca81918734773796f2b4979&#45;&gt;28a8ee5b8d4bcc7e2a031617611ad53db017f3ce -->
<g id="edge34" class="edge"><title>02d6865cb9ed987d2ca81918734773796f2b4979&#45;&gt;28a8ee5b8d4bcc7e2a031617611ad53db017f3ce</title>
<path fill="none" stroke="black" d="M3024.4,-72C3032.39,-72 3041.31,-72 3049.82,-72"/>
<polygon fill="black" stroke="black" points="3049.92,-75.5001 3059.92,-72 3049.92,-68.5001 3049.92,-75.5001"/>
</g>
<!-- 2071069317dd9534d38c65d5a26546b91d063b6c&#45;&gt;b007aaaa1de7694ebd038bfae14d514fbd16ae51 -->
<g id="edge5" class="edge"><title>2071069317dd9534d38c65d5a26546b91d063b6c&#45;&gt;b007aaaa1de7694ebd038bfae14d514fbd16ae51</title>
<path fill="none" stroke="black" d="M414.403,-72C422.393,-72 431.311,-72 439.824,-72"/>
<polygon fill="black" stroke="black" points="439.919,-75.5001 449.919,-72 439.919,-68.5001 439.919,-75.5001"/>
</g>
<!-- 654801be76a6789e978b8896579d889b08d60872 -->
<g id="node19" class="node"><title>654801be76a6789e978b8896579d889b08d60872</title>
<ellipse fill="none" stroke="black" cx="3447" cy="-72" rx="27" ry="18"/>
</g>
<!-- ab1c02d3ce520f474c6a91c240fea36bbac0fdbc&#45;&gt;654801be76a6789e978b8896579d889b08d60872 -->
<g id="edge38" class="edge"><title>ab1c02d3ce520f474c6a91c240fea36bbac0fdbc&#45;&gt;654801be76a6789e978b8896579d889b08d60872</title>
<path fill="none" stroke="black" d="M3384.4,-72C3392.39,-72 3401.31,-72 3409.82,-72"/>
<polygon fill="black" stroke="black" points="3409.92,-75.5001 3419.92,-72 3409.92,-68.5001 3409.92,-75.5001"/>
</g>
<!-- 7e29a108393dd18e56238385142fdfa230cdcc6b&#45;&gt;1c7325e50a00928470665fa7c4d38e04b4173cdc -->
<g id="edge29" class="edge"><title>7e29a108393dd18e56238385142fdfa230cdcc6b&#45;&gt;1c7325e50a00928470665fa7c4d38e04b4173cdc</title>
<path fill="none" stroke="black" d="M2574.4,-72C2582.39,-72 2591.31,-72 2599.82,-72"/>
<polygon fill="black" stroke="black" points="2599.92,-75.5001 2609.92,-72 2599.92,-68.5001 2599.92,-75.5001"/>
</g>
<!-- 654801be76a6789e978b8896579d889b08d60872&#45;&gt;779d1f08f021cbe52e21a21c0ce836a7f4a6ec25 -->
<g id="edge39" class="edge"><title>654801be76a6789e978b8896579d889b08d60872&#45;&gt;779d1f08f021cbe52e21a21c0ce836a7f4a6ec25</title>
<path fill="none" stroke="black" d="M3474.4,-72C3482.39,-72 3491.31,-72 3499.82,-72"/>
<polygon fill="black" stroke="black" points="3499.92,-75.5001 3509.92,-72 3499.92,-68.5001 3499.92,-75.5001"/>
</g>
<!-- d3cd5bceecccddc23bbe800d1a2f764310324929 -->
<g id="node20" class="node"><title>d3cd5bceecccddc23bbe800d1a2f764310324929</title>
<ellipse fill="none" stroke="black" cx="2367" cy="-72" rx="27" ry="18"/>
</g>
<!-- d3cd5bceecccddc23bbe800d1a2f764310324929&#45;&gt;a02f5ecab27c82fc5513d3a86cf5a913c01f3dfd -->
<g id="edge27" class="edge"><title>d3cd5bceecccddc23bbe800d1a2f764310324929&#45;&gt;a02f5ecab27c82fc5513d3a86cf5a913c01f3dfd</title>
<path fill="none" stroke="black" d="M2394.4,-72C2402.39,-72 2411.31,-72 2419.82,-72"/>
<polygon fill="black" stroke="black" points="2419.92,-75.5001 2429.92,-72 2419.92,-68.5001 2419.92,-75.5001"/>
</g>
<!-- 6bab52ea914aaf81b8f4393615e85f846f214cd0 -->
<g id="node35" class="node"><title>6bab52ea914aaf81b8f4393615e85f846f214cd0</title>
<ellipse fill="none" stroke="black" cx="1017" cy="-72" rx="27" ry="18"/>
</g>
<!-- 8b717788354d3dcc8f5a5942d0247ee6ade112f4&#45;&gt;6bab52ea914aaf81b8f4393615e85f846f214cd0 -->
<g id="edge11" class="edge"><title>8b717788354d3dcc8f5a5942d0247ee6ade112f4&#45;&gt;6bab52ea914aaf81b8f4393615e85f846f214cd0</title>
<path fill="none" stroke="black" d="M954.403,-72C962.393,-72 971.311,-72 979.824,-72"/>
<polygon fill="black" stroke="black" points="979.919,-75.5001 989.919,-72 979.919,-68.5001 979.919,-75.5001"/>
</g>
<!-- e5b2f0d2b55f351347779de206d6b69dfdbf5612 -->
<g id="node44" class="node"><title>e5b2f0d2b55f351347779de206d6b69dfdbf5612</title>
<ellipse fill="none" stroke="black" cx="1917" cy="-72" rx="27" ry="18"/>
</g>
<!-- edc2363711639144fed9701cb08c7cb162cbe2c1&#45;&gt;e5b2f0d2b55f351347779de206d6b69dfdbf5612 -->
<g id="edge21" class="edge"><title>edc2363711639144fed9701cb08c7cb162cbe2c1&#45;&gt;e5b2f0d2b55f351347779de206d6b69dfdbf5612</title>
<path fill="none" stroke="black" d="M1854.4,-72C1862.39,-72 1871.31,-72 1879.82,-72"/>
<polygon fill="black" stroke="black" points="1879.92,-75.5001 1889.92,-72 1879.92,-68.5001 1879.92,-75.5001"/>
</g>
<!-- ee16e9518a16b14fd9a41e0b6a7712640bebb08b&#45;&gt;1f05b0366f34e43e6a5e7c605e3b7e4ebd683d63 -->
<g id="edge19" class="edge"><title>ee16e9518a16b14fd9a41e0b6a7712640bebb08b&#45;&gt;1f05b0366f34e43e6a5e7c605e3b7e4ebd683d63</title>
<path fill="none" stroke="black" d="M1674.4,-72C1682.39,-72 1691.31,-72 1699.82,-72"/>
<polygon fill="black" stroke="black" points="1699.92,-75.5001 1709.92,-72 1699.92,-68.5001 1699.92,-75.5001"/>
</g>
<!-- 392135be30deb10d525eed34ed910279dd74f35b -->
<g id="node24" class="node"><title>392135be30deb10d525eed34ed910279dd74f35b</title>
<ellipse fill="none" stroke="black" cx="4077" cy="-18" rx="27" ry="18"/>
</g>
<!-- bd1a807a7370cfa8c41aaefabe568b9422831089 -->
<g id="node32" class="node"><title>bd1a807a7370cfa8c41aaefabe568b9422831089</title>
<ellipse fill="none" stroke="black" cx="4167" cy="-18" rx="27" ry="18"/>
</g>
<!-- 392135be30deb10d525eed34ed910279dd74f35b&#45;&gt;bd1a807a7370cfa8c41aaefabe568b9422831089 -->
<g id="edge48" class="edge"><title>392135be30deb10d525eed34ed910279dd74f35b&#45;&gt;bd1a807a7370cfa8c41aaefabe568b9422831089</title>
<path fill="none" stroke="black" d="M4104.4,-18C4112.39,-18 4121.31,-18 4129.82,-18"/>
<polygon fill="black" stroke="black" points="4129.92,-21.5001 4139.92,-18 4129.92,-14.5001 4129.92,-21.5001"/>
</g>
<!-- 8dd826f0f25d9e72b33007e5f36bab9d428cae85 -->
<g id="node26" class="node"><title>8dd826f0f25d9e72b33007e5f36bab9d428cae85</title>
<ellipse fill="none" stroke="black" cx="1197" cy="-72" rx="27" ry="18"/>
</g>
<!-- 43bf60f23e6916606a3e79f3a689f42d8f9012dc -->
<g id="node43" class="node"><title>43bf60f23e6916606a3e79f3a689f42d8f9012dc</title>
<ellipse fill="none" stroke="black" cx="1287" cy="-72" rx="27" ry="18"/>
</g>
<!-- 8dd826f0f25d9e72b33007e5f36bab9d428cae85&#45;&gt;43bf60f23e6916606a3e79f3a689f42d8f9012dc -->
<g id="edge14" class="edge"><title>8dd826f0f25d9e72b33007e5f36bab9d428cae85&#45;&gt;43bf60f23e6916606a3e79f3a689f42d8f9012dc</title>
<path fill="none" stroke="black" d="M1224.4,-72C1232.39,-72 1241.31,-72 1249.82,-72"/>
<polygon fill="black" stroke="black" points="1249.92,-75.5001 1259.92,-72 1249.92,-68.5001 1249.92,-75.5001"/>
</g>
<!-- 318350c679da65673a8299ca8b72e4aafd1a6fa2 -->
<g id="node27" class="node"><title>318350c679da65673a8299ca8b72e4aafd1a6fa2</title>
<ellipse fill="none" stroke="black" cx="2817" cy="-72" rx="27" ry="18"/>
</g>
<!-- 318350c679da65673a8299ca8b72e4aafd1a6fa2&#45;&gt;090c0fc65185ba09567cc9d1a807225911283227 -->
<g id="edge32" class="edge"><title>318350c679da65673a8299ca8b72e4aafd1a6fa2&#45;&gt;090c0fc65185ba09567cc9d1a807225911283227</title>
<path fill="none" stroke="black" d="M2844.4,-72C2852.39,-72 2861.31,-72 2869.82,-72"/>
<polygon fill="black" stroke="black" points="2869.92,-75.5001 2879.92,-72 2869.92,-68.5001 2869.92,-75.5001"/>
</g>
<!-- 6dc490fb679407c07e285437bd1b0b8b99a1b780 -->
<g id="node28" class="node"><title>6dc490fb679407c07e285437bd1b0b8b99a1b780</title>
<ellipse fill="none" stroke="black" cx="1107" cy="-72" rx="27" ry="18"/>
</g>
<!-- 6dc490fb679407c07e285437bd1b0b8b99a1b780&#45;&gt;8dd826f0f25d9e72b33007e5f36bab9d428cae85 -->
<g id="edge13" class="edge"><title>6dc490fb679407c07e285437bd1b0b8b99a1b780&#45;&gt;8dd826f0f25d9e72b33007e5f36bab9d428cae85</title>
<path fill="none" stroke="black" d="M1134.4,-72C1142.39,-72 1151.31,-72 1159.82,-72"/>
<polygon fill="black" stroke="black" points="1159.92,-75.5001 1169.92,-72 1159.92,-68.5001 1159.92,-75.5001"/>
</g>
<!-- 0b7138b3e21a0da8c060d7542ad54e59278194d5 -->
<g id="node29" class="node"><title>0b7138b3e21a0da8c060d7542ad54e59278194d5</title>
<ellipse fill="none" stroke="black" cx="1467" cy="-72" rx="27" ry="18"/>
</g>
<!-- 0b7138b3e21a0da8c060d7542ad54e59278194d5&#45;&gt;4d56cd73c870aeae7d826ccf38e717fb226664a5 -->
<g id="edge17" class="edge"><title>0b7138b3e21a0da8c060d7542ad54e59278194d5&#45;&gt;4d56cd73c870aeae7d826ccf38e717fb226664a5</title>
<path fill="none" stroke="black" d="M1494.4,-72C1502.39,-72 1511.31,-72 1519.82,-72"/>
<polygon fill="black" stroke="black" points="1519.92,-75.5001 1529.92,-72 1519.92,-68.5001 1519.92,-75.5001"/>
</g>
<!-- 4995f0f41eed89831bab456ee1aa949994931b6c -->
<g id="node30" class="node"><title>4995f0f41eed89831bab456ee1aa949994931b6c</title>
<ellipse fill="none" stroke="black" cx="3717" cy="-72" rx="27" ry="18"/>
</g>
<!-- 4995f0f41eed89831bab456ee1aa949994931b6c&#45;&gt;fcbbf460ce622a9c1059e915d3f64d1a486a5ca7 -->
<g id="edge42" class="edge"><title>4995f0f41eed89831bab456ee1aa949994931b6c&#45;&gt;fcbbf460ce622a9c1059e915d3f64d1a486a5ca7</title>
<path fill="none" stroke="black" d="M3744.4,-72C3752.39,-72 3761.31,-72 3769.82,-72"/>
<polygon fill="black" stroke="black" points="3769.92,-75.5001 3779.92,-72 3769.92,-68.5001 3769.92,-75.5001"/>
</g>
<!-- c966a5cb6ae76ba8a6172e56213dd4af802f47f1 -->
<g id="node31" class="node"><title>c966a5cb6ae76ba8a6172e56213dd4af802f47f1</title>
<ellipse fill="none" stroke="black" cx="3987" cy="-18" rx="27" ry="18"/>
</g>
<!-- c966a5cb6ae76ba8a6172e56213dd4af802f47f1&#45;&gt;392135be30deb10d525eed34ed910279dd74f35b -->
<g id="edge47" class="edge"><title>c966a5cb6ae76ba8a6172e56213dd4af802f47f1&#45;&gt;392135be30deb10d525eed34ed910279dd74f35b</title>
<path fill="none" stroke="black" d="M4014.4,-18C4022.39,-18 4031.31,-18 4039.82,-18"/>
<polygon fill="black" stroke="black" points="4039.92,-21.5001 4049.92,-18 4039.92,-14.5001 4039.92,-21.5001"/>
</g>
<!-- bd1a807a7370cfa8c41aaefabe568b9422831089&#45;&gt;7fa58cd803589b009aad227850329af2726863dd -->
<g id="edge49" class="edge"><title>bd1a807a7370cfa8c41aaefabe568b9422831089&#45;&gt;7fa58cd803589b009aad227850329af2726863dd</title>
<path fill="none" stroke="black" d="M4194.4,-18C4202.39,-18 4211.31,-18 4219.82,-18"/>
<polygon fill="black" stroke="black" points="4219.92,-21.5001 4229.92,-18 4219.92,-14.5001 4219.92,-21.5001"/>
</g>
<!-- 2e5da837b003859166e1940ed6067e3f6c91695b -->
<g id="node33" class="node"><title>2e5da837b003859166e1940ed6067e3f6c91695b</title>
<ellipse fill="none" stroke="black" cx="2277" cy="-72" rx="27" ry="18"/>
</g>
<!-- 2e5da837b003859166e1940ed6067e3f6c91695b&#45;&gt;d3cd5bceecccddc23bbe800d1a2f764310324929 -->
<g id="edge26" class="edge"><title>2e5da837b003859166e1940ed6067e3f6c91695b&#45;&gt;d3cd5bceecccddc23bbe800d1a2f764310324929</title>
<path fill="none" stroke="black" d="M2304.4,-72C2312.39,-72 2321.31,-72 2329.82,-72"/>
<polygon fill="black" stroke="black" points="2329.92,-75.5001 2339.92,-72 2329.92,-68.5001 2329.92,-75.5001"/>
</g>
<!-- fb6b6dd28758d4fe8e5dab26bdd5ed304c4db70c -->
<g id="node34" class="node"><title>fb6b6dd28758d4fe8e5dab26bdd5ed304c4db70c</title>
<ellipse fill="none" stroke="black" cx="2097" cy="-72" rx="27" ry="18"/>
</g>
<!-- 0394a7ebe76120a45bd14891fda41947d0c9e66d -->
<g id="node39" class="node"><title>0394a7ebe76120a45bd14891fda41947d0c9e66d</title>
<ellipse fill="none" stroke="black" cx="2187" cy="-72" rx="27" ry="18"/>
</g>
<!-- fb6b6dd28758d4fe8e5dab26bdd5ed304c4db70c&#45;&gt;0394a7ebe76120a45bd14891fda41947d0c9e66d -->
<g id="edge24" class="edge"><title>fb6b6dd28758d4fe8e5dab26bdd5ed304c4db70c&#45;&gt;0394a7ebe76120a45bd14891fda41947d0c9e66d</title>
<path fill="none" stroke="black" d="M2124.4,-72C2132.39,-72 2141.31,-72 2149.82,-72"/>
<polygon fill="black" stroke="black" points="2149.92,-75.5001 2159.92,-72 2149.92,-68.5001 2149.92,-75.5001"/>
</g>
<!-- 6bab52ea914aaf81b8f4393615e85f846f214cd0&#45;&gt;6dc490fb679407c07e285437bd1b0b8b99a1b780 -->
<g id="edge12" class="edge"><title>6bab52ea914aaf81b8f4393615e85f846f214cd0&#45;&gt;6dc490fb679407c07e285437bd1b0b8b99a1b780</title>
<path fill="none" stroke="black" d="M1044.4,-72C1052.39,-72 1061.31,-72 1069.82,-72"/>
<polygon fill="black" stroke="black" points="1069.92,-75.5001 1079.92,-72 1069.92,-68.5001 1069.92,-75.5001"/>
</g>
<!-- 18445bf00f10691ecdd125dc57759ff7805308c3 -->
<g id="node36" class="node"><title>18445bf00f10691ecdd125dc57759ff7805308c3</title>
<ellipse fill="none" stroke="black" cx="3897" cy="-18" rx="27" ry="18"/>
</g>
<!-- 18445bf00f10691ecdd125dc57759ff7805308c3&#45;&gt;c966a5cb6ae76ba8a6172e56213dd4af802f47f1 -->
<g id="edge46" class="edge"><title>18445bf00f10691ecdd125dc57759ff7805308c3&#45;&gt;c966a5cb6ae76ba8a6172e56213dd4af802f47f1</title>
<path fill="none" stroke="black" d="M3924.4,-18C3932.39,-18 3941.31,-18 3949.82,-18"/>
<polygon fill="black" stroke="black" points="3949.92,-21.5001 3959.92,-18 3949.92,-14.5001 3949.92,-21.5001"/>
</g>
<!-- d470c306b87ed456d03bafdd0a0d08580ca29fd3&#45;&gt;4995f0f41eed89831bab456ee1aa949994931b6c -->
<g id="edge41" class="edge"><title>d470c306b87ed456d03bafdd0a0d08580ca29fd3&#45;&gt;4995f0f41eed89831bab456ee1aa949994931b6c</title>
<path fill="none" stroke="black" d="M3654.4,-72C3662.39,-72 3671.31,-72 3679.82,-72"/>
<polygon fill="black" stroke="black" points="3679.92,-75.5001 3689.92,-72 3679.92,-68.5001 3679.92,-75.5001"/>
</g>
<!-- 298efbb43a0c9a5f8920f8855f89ff40d4fd644e -->
<g id="node38" class="node"><title>298efbb43a0c9a5f8920f8855f89ff40d4fd644e</title>
<ellipse fill="none" stroke="black" cx="207" cy="-72" rx="27" ry="18"/>
</g>
<!-- 298efbb43a0c9a5f8920f8855f89ff40d4fd644e&#45;&gt;ce92588dc1128bc2b0db632c8b51cf67d2b5e434 -->
<g id="edge3" class="edge"><title>298efbb43a0c9a5f8920f8855f89ff40d4fd644e&#45;&gt;ce92588dc1128bc2b0db632c8b51cf67d2b5e434</title>
<path fill="none" stroke="black" d="M234.403,-72C242.393,-72 251.311,-72 259.824,-72"/>
<polygon fill="black" stroke="black" points="259.919,-75.5001 269.919,-72 259.919,-68.5001 259.919,-75.5001"/>
</g>
<!-- 0394a7ebe76120a45bd14891fda41947d0c9e66d&#45;&gt;2e5da837b003859166e1940ed6067e3f6c91695b -->
<g id="edge25" class="edge"><title>0394a7ebe76120a45bd14891fda41947d0c9e66d&#45;&gt;2e5da837b003859166e1940ed6067e3f6c91695b</title>
<path fill="none" stroke="black" d="M2214.4,-72C2222.39,-72 2231.31,-72 2239.82,-72"/>
<polygon fill="black" stroke="black" points="2239.92,-75.5001 2249.92,-72 2239.92,-68.5001 2239.92,-75.5001"/>
</g>
<!-- c08e82d38b4b4ff7f9be26635783f5d9ff6191fc&#45;&gt;298efbb43a0c9a5f8920f8855f89ff40d4fd644e -->
<g id="edge2" class="edge"><title>c08e82d38b4b4ff7f9be26635783f5d9ff6191fc&#45;&gt;298efbb43a0c9a5f8920f8855f89ff40d4fd644e</title>
<path fill="none" stroke="black" d="M144.403,-72C152.393,-72 161.311,-72 169.824,-72"/>
<polygon fill="black" stroke="black" points="169.919,-75.5001 179.919,-72 169.919,-68.5001 169.919,-75.5001"/>
</g>
<!-- 1236648740e00577e276e81f9e3e71ad3c9f7a2d -->
<g id="node48" class="node"><title>1236648740e00577e276e81f9e3e71ad3c9f7a2d</title>
<ellipse fill="none" stroke="black" cx="3177" cy="-72" rx="27" ry="18"/>
</g>
<!-- 28a8ee5b8d4bcc7e2a031617611ad53db017f3ce&#45;&gt;1236648740e00577e276e81f9e3e71ad3c9f7a2d -->
<g id="edge35" class="edge"><title>28a8ee5b8d4bcc7e2a031617611ad53db017f3ce&#45;&gt;1236648740e00577e276e81f9e3e71ad3c9f7a2d</title>
<path fill="none" stroke="black" d="M3114.4,-72C3122.39,-72 3131.31,-72 3139.82,-72"/>
<polygon fill="black" stroke="black" points="3139.92,-75.5001 3149.92,-72 3139.92,-68.5001 3139.92,-75.5001"/>
</g>
<!-- 070f30d066c3b3e861abc1867d81fc19d37ca6a3 -->
<g id="node42" class="node"><title>070f30d066c3b3e861abc1867d81fc19d37ca6a3</title>
<ellipse fill="none" stroke="black" cx="2007" cy="-72" rx="27" ry="18"/>
</g>
<!-- 070f30d066c3b3e861abc1867d81fc19d37ca6a3&#45;&gt;fb6b6dd28758d4fe8e5dab26bdd5ed304c4db70c -->
<g id="edge23" class="edge"><title>070f30d066c3b3e861abc1867d81fc19d37ca6a3&#45;&gt;fb6b6dd28758d4fe8e5dab26bdd5ed304c4db70c</title>
<path fill="none" stroke="black" d="M2034.4,-72C2042.39,-72 2051.31,-72 2059.82,-72"/>
<polygon fill="black" stroke="black" points="2059.92,-75.5001 2069.92,-72 2059.92,-68.5001 2059.92,-75.5001"/>
</g>
<!-- 6f88378341f4afd9caabf11d072628ca732afecf -->
<g id="node51" class="node"><title>6f88378341f4afd9caabf11d072628ca732afecf</title>
<ellipse fill="none" stroke="black" cx="1377" cy="-72" rx="27" ry="18"/>
</g>
<!-- 43bf60f23e6916606a3e79f3a689f42d8f9012dc&#45;&gt;6f88378341f4afd9caabf11d072628ca732afecf -->
<g id="edge15" class="edge"><title>43bf60f23e6916606a3e79f3a689f42d8f9012dc&#45;&gt;6f88378341f4afd9caabf11d072628ca732afecf</title>
<path fill="none" stroke="black" d="M1314.4,-72C1322.39,-72 1331.31,-72 1339.82,-72"/>
<polygon fill="black" stroke="black" points="1339.92,-75.5001 1349.92,-72 1339.92,-68.5001 1339.92,-75.5001"/>
</g>
<!-- e5b2f0d2b55f351347779de206d6b69dfdbf5612&#45;&gt;070f30d066c3b3e861abc1867d81fc19d37ca6a3 -->
<g id="edge22" class="edge"><title>e5b2f0d2b55f351347779de206d6b69dfdbf5612&#45;&gt;070f30d066c3b3e861abc1867d81fc19d37ca6a3</title>
<path fill="none" stroke="black" d="M1944.4,-72C1952.39,-72 1961.31,-72 1969.82,-72"/>
<polygon fill="black" stroke="black" points="1969.92,-75.5001 1979.92,-72 1969.92,-68.5001 1969.92,-75.5001"/>
</g>
<!-- fcbbf460ce622a9c1059e915d3f64d1a486a5ca7&#45;&gt;baf1d2a417f530f7410d4f77c7b1c887a0105e8c -->
<g id="edge43" class="edge"><title>fcbbf460ce622a9c1059e915d3f64d1a486a5ca7&#45;&gt;baf1d2a417f530f7410d4f77c7b1c887a0105e8c</title>
<path fill="none" stroke="black" d="M3832.51,-65.8766C3841.4,-65.266 3851.62,-65.1016 3861.22,-65.3836"/>
<polygon fill="black" stroke="black" points="3861.16,-68.8843 3871.31,-65.8648 3861.49,-61.8923 3861.16,-68.8843"/>
</g>
<!-- fcbbf460ce622a9c1059e915d3f64d1a486a5ca7&#45;&gt;18445bf00f10691ecdd125dc57759ff7805308c3 -->
<g id="edge45" class="edge"><title>fcbbf460ce622a9c1059e915d3f64d1a486a5ca7&#45;&gt;18445bf00f10691ecdd125dc57759ff7805308c3</title>
<path fill="none" stroke="black" d="M3827.53,-60.0156C3839.38,-52.7448 3854.7,-43.3438 3867.84,-35.2785"/>
<polygon fill="black" stroke="black" points="3869.83,-38.1642 3876.52,-29.9508 3866.17,-32.1979 3869.83,-38.1642"/>
</g>
<!-- aec5efc99754cd8c7786e5981ec96706e9dd206c -->
<g id="node49" class="node"><title>aec5efc99754cd8c7786e5981ec96706e9dd206c</title>
<ellipse fill="none" stroke="black" cx="657" cy="-72" rx="27" ry="18"/>
</g>
<!-- 78a449d08964b279729f300b56623ac0f70771a6&#45;&gt;aec5efc99754cd8c7786e5981ec96706e9dd206c -->
<g id="edge7" class="edge"><title>78a449d08964b279729f300b56623ac0f70771a6&#45;&gt;aec5efc99754cd8c7786e5981ec96706e9dd206c</title>
<path fill="none" stroke="black" d="M594.403,-72C602.393,-72 611.311,-72 619.824,-72"/>
<polygon fill="black" stroke="black" points="619.919,-75.5001 629.919,-72 619.919,-68.5001 619.919,-75.5001"/>
</g>
<!-- c02913ac9eb8e5aaa33f1eef1bc5df8e2a6cfab2&#45;&gt;318350c679da65673a8299ca8b72e4aafd1a6fa2 -->
<g id="edge31" class="edge"><title>c02913ac9eb8e5aaa33f1eef1bc5df8e2a6cfab2&#45;&gt;318350c679da65673a8299ca8b72e4aafd1a6fa2</title>
<path fill="none" stroke="black" d="M2754.4,-72C2762.39,-72 2771.31,-72 2779.82,-72"/>
<polygon fill="black" stroke="black" points="2779.92,-75.5001 2789.92,-72 2779.92,-68.5001 2779.92,-75.5001"/>
</g>
<!-- 1236648740e00577e276e81f9e3e71ad3c9f7a2d&#45;&gt;e61e8b1314ca1cf48afc8f7869f2a6c07f16f9b3 -->
<g id="edge36" class="edge"><title>1236648740e00577e276e81f9e3e71ad3c9f7a2d&#45;&gt;e61e8b1314ca1cf48afc8f7869f2a6c07f16f9b3</title>
<path fill="none" stroke="black" d="M3204.4,-72C3212.39,-72 3221.31,-72 3229.82,-72"/>
<polygon fill="black" stroke="black" points="3229.92,-75.5001 3239.92,-72 3229.92,-68.5001 3229.92,-75.5001"/>
</g>
<!-- 0595873062c72865cd2948465aae8a076c7cf915 -->
<g id="node50" class="node"><title>0595873062c72865cd2948465aae8a076c7cf915</title>
<ellipse fill="none" stroke="black" cx="747" cy="-72" rx="27" ry="18"/>
</g>
<!-- aec5efc99754cd8c7786e5981ec96706e9dd206c&#45;&gt;0595873062c72865cd2948465aae8a076c7cf915 -->
<g id="edge8" class="edge"><title>aec5efc99754cd8c7786e5981ec96706e9dd206c&#45;&gt;0595873062c72865cd2948465aae8a076c7cf915</title>
<path fill="none" stroke="black" d="M684.403,-72C692.393,-72 701.311,-72 709.824,-72"/>
<polygon fill="black" stroke="black" points="709.919,-75.5001 719.919,-72 709.919,-68.5001 709.919,-75.5001"/>
</g>
<!-- 0595873062c72865cd2948465aae8a076c7cf915&#45;&gt;fffbf3443456218b4263b9143d109a343cf93d43 -->
<g id="edge9" class="edge"><title>0595873062c72865cd2948465aae8a076c7cf915&#45;&gt;fffbf3443456218b4263b9143d109a343cf93d43</title>
<path fill="none" stroke="black" d="M774.403,-72C782.393,-72 791.311,-72 799.824,-72"/>
<polygon fill="black" stroke="black" points="799.919,-75.5001 809.919,-72 799.919,-68.5001 799.919,-75.5001"/>
</g>
<!-- 6f88378341f4afd9caabf11d072628ca732afecf&#45;&gt;0b7138b3e21a0da8c060d7542ad54e59278194d5 -->
<g id="edge16" class="edge"><title>6f88378341f4afd9caabf11d072628ca732afecf&#45;&gt;0b7138b3e21a0da8c060d7542ad54e59278194d5</title>
<path fill="none" stroke="black" d="M1404.4,-72C1412.39,-72 1421.31,-72 1429.82,-72"/>
<polygon fill="black" stroke="black" points="1429.92,-75.5001 1439.92,-72 1429.92,-68.5001 1429.92,-75.5001"/>
</g>
</g>
</svg>
